<svg width="512" height="371" viewBox="0 0 512 371" fill="none" xmlns="http://www.w3.org/2000/svg">
<path d="M237.044 340.466H306.882C343.869 340.683 371.451 319.679 381.086 283.722L422.553 126.585C431.282 91.6652 411.608 65.6683 378.903 65.4756L234.861 65.4756H158.475C107.263 65.1739 62.6258 94.4253 49.2853 144.213L1.33797 323.155C-6.35304 351.858 20.4017 377.714 48.6083 368.837L136.65 340.466H237.044Z" fill="#5027B1"/>
<rect x="267.598" y="135.314" width="69.8387" height="69.8387" rx="34.9193" fill="white"/>
<rect x="197.759" y="136.196" width="34.9193" height="69.8387" rx="17.4597" fill="white"/>
<path d="M444.378 257.532C456.494 247.065 463.793 233.438 468.174 217.09L510.281 65.4756C518.801 33.6803 494.543 0.194486 461.838 0.0018421L241.59 0.00380262C215.662 -0.148939 191.31 4.26558 171.853 19.4328L171.829 19.4121L88.3723 86.9926C107.816 72.8956 132.286 65.3213 158.475 65.4756L381.086 65.4756C381.151 65.4957 381.217 65.5157 381.282 65.5359C412.555 66.9463 431.069 92.5199 422.553 126.584L381.086 283.721C377.527 297.003 371.519 308.245 363.494 317.131L444.378 257.532Z" fill="#9C78F2"/>
<path d="M378.504 306.071C385.694 297.363 391.114 286.6 394.418 274.041L435.648 124.402C446.56 80.7528 413.697 52.5789 381.087 52.3832L172.45 52.3832C150.133 52.2493 129.067 57.8488 111.312 68.4171L88.3723 86.9927C107.816 72.8957 132.286 65.3213 158.475 65.4756L381.086 65.4756L381.282 65.5359C412.555 66.9463 431.069 92.5199 422.553 126.584L381.086 283.722C377.527 297.004 371.519 308.245 363.494 317.131L378.504 306.071Z" fill="white"/>
</svg>
